<svg width="1080" height="1080" viewBox="0 0 1080 1080" fill="none" xmlns="http://www.w3.org/2000/svg">
<rect width="1080" height="1080" fill="#BE0029"/>
<path d="M203.319 480C193.486 480 184.986 478.417 177.819 475.25C170.653 472.083 165.153 467.583 161.319 461.75C157.486 455.75 155.569 448.667 155.569 440.5C155.569 432.833 157.319 426.083 160.819 420.25C164.319 414.25 169.653 409.25 176.819 405.25C184.153 401.25 193.236 398.417 204.069 396.75L245.819 390V417.5L210.819 423.75C205.486 424.75 201.403 426.5 198.569 429C195.736 431.333 194.319 434.75 194.319 439.25C194.319 443.417 195.903 446.667 199.069 449C202.236 451.333 206.153 452.5 210.819 452.5C216.986 452.5 222.403 451.167 227.069 448.5C231.736 445.833 235.319 442.25 237.819 437.75C240.486 433.083 241.819 428 241.819 422.5V387C241.819 381.833 239.736 377.5 235.569 374C231.569 370.5 226.069 368.75 219.069 368.75C212.403 368.75 206.486 370.583 201.319 374.25C196.319 377.917 192.653 382.75 190.319 388.75L160.319 374.5C162.986 366.833 167.236 360.25 173.069 354.75C178.903 349.25 185.903 345 194.069 342C202.236 339 211.153 337.5 220.819 337.5C232.319 337.5 242.486 339.583 251.319 343.75C260.153 347.917 266.986 353.75 271.819 361.25C276.819 368.583 279.319 377.167 279.319 387V477H244.319V455L252.819 453.5C248.819 459.5 244.403 464.5 239.569 468.5C234.736 472.333 229.319 475.167 223.319 477C217.319 479 210.653 480 203.319 480ZM316.821 477V340.5H351.821V367.5L349.821 361.5C352.988 353.333 358.071 347.333 365.071 343.5C372.238 339.5 380.571 337.5 390.071 337.5C400.405 337.5 409.405 339.667 417.071 344C424.905 348.333 430.988 354.417 435.321 362.25C439.655 369.917 441.821 378.917 441.821 389.25V477H404.321V397.25C404.321 391.917 403.238 387.333 401.071 383.5C399.071 379.667 396.155 376.667 392.321 374.5C388.655 372.333 384.321 371.25 379.321 371.25C374.488 371.25 370.155 372.333 366.321 374.5C362.488 376.667 359.488 379.667 357.321 383.5C355.321 387.333 354.321 391.917 354.321 397.25V477H316.821ZM476.479 477V340.5H513.979V477H476.479ZM476.479 328.25V290.75H513.979V328.25H476.479ZM551.421 477V340.5H586.421V373.75L582.671 368.25C584.671 357.75 589.504 350 597.171 345C604.838 340 614.004 337.5 624.671 337.5C636.004 337.5 645.921 340.417 654.421 346.25C663.088 351.917 668.504 359.583 670.671 369.25L659.921 370.25C664.421 359.083 670.838 350.833 679.171 345.5C687.504 340.167 697.254 337.5 708.421 337.5C718.254 337.5 726.921 339.667 734.421 344C742.088 348.333 748.088 354.417 752.421 362.25C756.754 369.917 758.921 378.917 758.921 389.25V477H721.421V397.25C721.421 391.917 720.421 387.333 718.421 383.5C716.588 379.667 713.921 376.667 710.421 374.5C706.921 372.333 702.671 371.25 697.671 371.25C692.838 371.25 688.588 372.333 684.921 374.5C681.421 376.667 678.671 379.667 676.671 383.5C674.838 387.333 673.921 391.917 673.921 397.25V477H636.421V397.25C636.421 391.917 635.421 387.333 633.421 383.5C631.588 379.667 628.921 376.667 625.421 374.5C621.921 372.333 617.671 371.25 612.671 371.25C607.838 371.25 603.588 372.333 599.921 374.5C596.421 376.667 593.671 379.667 591.671 383.5C589.838 387.333 588.921 391.917 588.921 397.25V477H551.421ZM859.349 480C844.849 480 832.265 476.833 821.599 470.5C810.932 464 802.682 455.333 796.849 444.5C791.015 433.667 788.099 421.667 788.099 408.5C788.099 394.833 791.099 382.667 797.099 372C803.265 361.333 811.515 352.917 821.849 346.75C832.182 340.583 843.849 337.5 856.849 337.5C867.682 337.5 877.265 339.25 885.599 342.75C893.932 346.083 900.932 350.833 906.599 357C912.432 363.167 916.849 370.333 919.849 378.5C922.849 386.5 924.349 395.25 924.349 404.75C924.349 407.417 924.182 410.083 923.849 412.75C923.682 415.25 923.265 417.417 922.599 419.25H820.349V391.75H901.349L883.599 404.75C885.265 397.583 885.182 391.25 883.349 385.75C881.515 380.083 878.265 375.667 873.599 372.5C869.099 369.167 863.515 367.5 856.849 367.5C850.349 367.5 844.765 369.083 840.099 372.25C835.432 375.417 831.932 380.083 829.599 386.25C827.265 392.417 826.349 399.917 826.849 408.75C826.182 416.417 827.099 423.167 829.599 429C832.099 434.833 835.932 439.417 841.099 442.75C846.265 445.917 852.515 447.5 859.849 447.5C866.515 447.5 872.182 446.167 876.849 443.5C881.682 440.833 885.432 437.167 888.099 432.5L918.099 446.75C915.432 453.417 911.182 459.25 905.349 464.25C899.682 469.25 892.932 473.167 885.099 476C877.265 478.667 868.682 480 859.349 480ZM227.391 709C213.724 709 201.391 705.917 190.391 699.75C179.557 693.417 170.891 684.833 164.391 674C158.057 663.167 154.891 651 154.891 637.5C154.891 624 158.057 611.917 164.391 601.25C170.724 590.417 179.391 581.917 190.391 575.75C201.391 569.583 213.724 566.5 227.391 566.5C237.557 566.5 246.974 568.25 255.641 571.75C264.307 575.25 271.724 580.167 277.891 586.5C284.057 592.667 288.474 600 291.141 608.5L258.641 622.5C256.307 615.667 252.307 610.25 246.641 606.25C241.141 602.25 234.724 600.25 227.391 600.25C220.891 600.25 215.057 601.833 209.891 605C204.891 608.167 200.891 612.583 197.891 618.25C195.057 623.917 193.641 630.417 193.641 637.75C193.641 645.083 195.057 651.583 197.891 657.25C200.891 662.917 204.891 667.333 209.891 670.5C215.057 673.667 220.891 675.25 227.391 675.25C234.891 675.25 241.391 673.25 246.891 669.25C252.391 665.25 256.307 659.833 258.641 653L291.141 667.25C288.641 675.25 284.307 682.417 278.141 688.75C271.974 695.083 264.557 700.083 255.891 703.75C247.224 707.25 237.724 709 227.391 709ZM430.973 709C417.473 709 405.139 705.917 393.973 699.75C382.973 693.583 374.139 685.167 367.473 674.5C360.973 663.667 357.723 651.417 357.723 637.75C357.723 623.917 360.973 611.667 367.473 601C374.139 590.333 382.973 581.917 393.973 575.75C405.139 569.583 417.473 566.5 430.973 566.5C444.473 566.5 456.723 569.583 467.723 575.75C478.723 581.917 487.473 590.333 493.973 601C500.639 611.667 503.973 623.917 503.973 637.75C503.973 651.417 500.639 663.667 493.973 674.5C487.473 685.167 478.723 693.583 467.723 699.75C456.723 705.917 444.473 709 430.973 709ZM430.973 675.25C437.806 675.25 443.723 673.667 448.723 670.5C453.889 667.333 457.889 662.917 460.723 657.25C463.723 651.583 465.223 645.083 465.223 637.75C465.223 630.417 463.723 624 460.723 618.5C457.889 612.833 453.889 608.417 448.723 605.25C443.723 601.917 437.806 600.25 430.973 600.25C424.139 600.25 418.139 601.917 412.973 605.25C407.806 608.417 403.723 612.833 400.723 618.5C397.889 624 396.473 630.417 396.473 637.75C396.473 645.083 397.889 651.583 400.723 657.25C403.723 662.917 407.806 667.333 412.973 670.5C418.139 673.667 424.139 675.25 430.973 675.25ZM640.314 709C626.981 709 615.064 705.833 604.564 699.5C594.064 693.167 585.731 684.583 579.564 673.75C573.564 662.917 570.564 650.917 570.564 637.75C570.564 624.417 573.648 612.417 579.814 601.75C585.981 590.917 594.314 582.333 604.814 576C615.314 569.667 627.064 566.5 640.064 566.5C650.064 566.5 658.898 568.417 666.564 572.25C674.398 575.917 680.564 581.167 685.064 588L679.314 595.5V516.75H716.814V706H681.814V681L685.314 688.75C680.648 695.417 674.314 700.5 666.314 704C658.314 707.333 649.648 709 640.314 709ZM644.814 675.25C651.648 675.25 657.648 673.667 662.814 670.5C667.981 667.333 671.981 662.917 674.814 657.25C677.814 651.583 679.314 645.083 679.314 637.75C679.314 630.417 677.814 623.917 674.814 618.25C671.981 612.583 667.981 608.167 662.814 605C657.648 601.833 651.648 600.25 644.814 600.25C637.981 600.25 631.814 601.917 626.314 605.25C620.981 608.417 616.814 612.833 613.814 618.5C610.814 624 609.314 630.417 609.314 637.75C609.314 645.083 610.814 651.583 613.814 657.25C616.814 662.917 620.981 667.333 626.314 670.5C631.814 673.667 637.981 675.25 644.814 675.25ZM860.027 709C845.527 709 832.944 705.833 822.277 699.5C811.611 693 803.361 684.333 797.527 673.5C791.694 662.667 788.777 650.667 788.777 637.5C788.777 623.833 791.777 611.667 797.777 601C803.944 590.333 812.194 581.917 822.527 575.75C832.861 569.583 844.527 566.5 857.527 566.5C868.361 566.5 877.944 568.25 886.277 571.75C894.611 575.083 901.611 579.833 907.277 586C913.111 592.167 917.527 599.333 920.527 607.5C923.527 615.5 925.027 624.25 925.027 633.75C925.027 636.417 924.861 639.083 924.527 641.75C924.361 644.25 923.944 646.417 923.277 648.25H821.027V620.75H902.027L884.277 633.75C885.944 626.583 885.861 620.25 884.027 614.75C882.194 609.083 878.944 604.667 874.277 601.5C869.777 598.167 864.194 596.5 857.527 596.5C851.027 596.5 845.444 598.083 840.777 601.25C836.111 604.417 832.611 609.083 830.277 615.25C827.944 621.417 827.027 628.917 827.527 637.75C826.861 645.417 827.777 652.167 830.277 658C832.777 663.833 836.611 668.417 841.777 671.75C846.944 674.917 853.194 676.5 860.527 676.5C867.194 676.5 872.861 675.167 877.527 672.5C882.361 669.833 886.111 666.167 888.777 661.5L918.777 675.75C916.111 682.417 911.861 688.25 906.027 693.25C900.361 698.25 893.611 702.167 885.777 705C877.944 707.667 869.361 709 860.027 709Z" fill="white"/>
<path d="M220.236 789.024C220.236 790.208 221.164 791.136 222.348 791.136C223.5 791.136 224.46 790.208 224.46 789.024C224.46 787.872 223.5 786.912 222.348 786.912C221.164 786.912 220.236 787.872 220.236 789.024ZM218.764 789.024C218.764 787.04 220.364 785.44 222.348 785.44C224.332 785.44 225.932 787.04 225.932 789.024C225.932 791.008 224.332 792.608 222.348 792.608C220.364 792.608 218.764 791.008 218.764 789.024ZM221.548 791.168C221.324 791.616 221.196 792.16 221.068 792.768C220.364 796.128 218.828 801.312 216.268 804.576C213.356 808.352 209.548 811.296 203.692 813.152L201.516 810.752C207.724 809.184 211.308 806.464 213.996 803.04C216.268 800.16 217.74 795.68 218.188 792.608C216.332 792.608 203.66 792.608 201.804 792.608C200.524 792.608 199.436 792.672 198.636 792.736V789.888C199.5 789.984 200.78 790.112 201.836 790.112C203.66 790.112 216.428 790.112 217.868 790.112C218.38 790.112 218.988 790.08 219.596 789.92L221.548 791.168ZM249.868 790.08C251.116 790.144 251.948 790.144 252.716 790.144C254.412 790.144 268.332 790.144 269.9 790.144C270.572 790.144 271.724 790.144 272.716 790.112C272.652 790.88 272.652 791.776 272.652 792.576C272.652 794.08 272.652 807.136 272.652 808.352C272.652 809.376 272.684 811.872 272.716 812.224H269.932C269.964 811.872 269.996 810.048 269.996 808.704C269.996 807.52 269.996 792.672 269.996 792.672H252.524C252.524 792.672 252.524 807.392 252.524 808.704C252.524 809.76 252.556 811.808 252.556 812.224H249.836C249.836 811.808 249.9 809.472 249.9 808.352C249.9 807.04 249.9 793.824 249.9 792.576C249.9 791.84 249.9 790.88 249.868 790.08ZM271.052 807.904V810.4H251.244V807.904H271.052ZM320.396 786.4C321.196 787.552 322.348 789.504 322.988 790.784L321.26 791.584C320.62 790.272 319.532 788.352 318.668 787.136L320.396 786.4ZM323.884 785.12C324.748 786.304 325.964 788.288 326.572 789.472L324.844 790.24C324.14 788.864 323.116 787.04 322.22 785.856L323.884 785.12ZM322.508 792.768C322.252 793.248 321.932 793.984 321.772 794.496C320.908 797.696 318.924 802.048 316.108 805.504C313.196 809.056 309.356 812 303.34 814.208L301.036 812.128C306.924 810.4 310.892 807.488 313.804 804.096C316.3 801.152 318.252 797.024 318.924 794.112H307.052L308.076 791.808C309.388 791.808 317.292 791.808 318.284 791.808C319.148 791.808 319.852 791.712 320.396 791.488L322.508 792.768ZM311.788 787.936C311.276 788.768 310.7 789.856 310.38 790.464C308.492 793.984 305.132 798.56 300.012 801.984L297.772 800.32C303.308 797.024 306.444 792.384 307.852 789.504C308.172 788.96 308.652 787.776 308.844 786.976L311.788 787.936ZM354.028 788.192C354.86 788.288 355.852 788.352 356.876 788.352C358.604 788.352 367.596 788.352 369.484 788.352C370.476 788.352 371.596 788.288 372.364 788.192V790.848C371.628 790.784 370.508 790.752 369.42 790.752C367.628 790.752 358.636 790.752 356.876 790.752C355.916 790.752 354.892 790.784 354.028 790.848V788.192ZM374.732 796.608C374.572 796.928 374.348 797.312 374.284 797.568C373.452 800.704 372.012 804.032 369.612 806.656C366.284 810.336 362.252 812.192 358.188 813.344L356.204 811.072C360.716 810.144 364.716 808.064 367.468 805.184C369.388 803.168 370.668 800.448 371.244 798.112C369.676 798.112 356.204 798.112 354.284 798.112C353.516 798.112 352.3 798.144 351.148 798.24V795.552C352.3 795.648 353.388 795.744 354.284 795.744C355.852 795.744 369.484 795.744 371.116 795.744C371.852 795.744 372.556 795.648 372.908 795.488L374.732 796.608ZM406.54 787.776C410.7 788.32 419.276 790.112 423.308 791.52L422.284 793.984C418.412 792.544 410.028 790.72 405.612 790.144L406.54 787.776ZM405.068 796.224C409.452 796.992 417.228 798.624 421.196 800.064L420.204 802.528C416.492 801.088 408.652 799.328 404.108 798.624L405.068 796.224ZM403.34 805.536C408.684 806.4 417.996 808.576 422.38 810.336L421.26 812.8C417.036 810.944 407.5 808.8 402.348 808L403.34 805.536ZM455.34 788.576C457.58 790.08 461.708 793.408 463.468 795.168L461.484 797.216C459.852 795.552 455.884 792.096 453.484 790.528L455.34 788.576ZM452.588 810.016C458.156 809.184 462.316 807.232 465.356 805.344C470.316 802.24 474.188 797.504 476.044 793.536L477.58 796.288C475.404 800.256 471.692 804.608 466.86 807.648C463.628 809.664 459.596 811.648 454.252 812.64L452.588 810.016ZM523.276 786.4C524.076 787.552 525.228 789.504 525.868 790.784L524.14 791.584C523.5 790.272 522.412 788.352 521.548 787.136L523.276 786.4ZM526.764 785.12C527.628 786.304 528.844 788.288 529.452 789.472L527.724 790.24C527.02 788.864 525.996 787.04 525.1 785.856L526.764 785.12ZM525.388 792.768C525.132 793.248 524.812 793.984 524.652 794.496C523.788 797.696 521.804 802.048 518.988 805.504C516.076 809.056 512.236 812 506.22 814.208L503.916 812.128C509.804 810.4 513.772 807.488 516.684 804.096C519.18 801.152 521.132 797.024 521.804 794.112H509.932L510.956 791.808C512.268 791.808 520.172 791.808 521.164 791.808C522.028 791.808 522.732 791.712 523.276 791.488L525.388 792.768ZM514.668 787.936C514.156 788.768 513.58 789.856 513.26 790.464C511.372 793.984 508.012 798.56 502.892 801.984L500.652 800.32C506.188 797.024 509.324 792.384 510.732 789.504C511.052 788.96 511.532 787.776 511.724 786.976L514.668 787.936ZM554.828 789.76C557.228 789.888 562.092 789.76 565.58 789.28C568.492 788.896 572.236 788.128 573.804 787.424L575.5 789.664C574.796 789.856 574.188 790.016 573.708 790.144C571.852 790.592 568.876 791.168 566.316 791.52C562.732 792 558.316 792.096 555.468 792.16L554.828 789.76ZM556.62 811.584C562.06 809.024 564.78 805.024 564.78 798.432C564.78 798.432 564.78 795.552 564.78 791.168L567.34 790.816C567.34 793.312 567.34 798.368 567.34 798.368C567.34 805.184 565.1 809.888 559.116 813.312L556.62 811.584ZM552.332 797.376C553.036 797.44 554.156 797.536 555.148 797.536C557.196 797.536 574.22 797.536 576.204 797.536C576.876 797.536 578.06 797.472 578.732 797.408V800.032C578.028 799.968 577.036 799.936 576.236 799.936C574.316 799.936 557.164 799.936 555.18 799.936C554.156 799.936 553.1 799.968 552.332 800.032V797.376ZM623.788 796.8C623.692 797.088 623.596 797.504 623.596 797.792C623.308 800.192 622.156 807.872 621.772 810.112H619.084C619.436 808.384 620.62 800.544 620.716 798.496C618.732 798.496 611.436 798.496 610.572 798.496C609.644 798.496 608.78 798.528 607.98 798.592V795.904C608.748 796 609.74 796.064 610.54 796.064C611.756 796.064 618.476 796.064 620.268 796.064C620.78 796.064 621.58 796 621.836 795.84L623.788 796.8ZM604.972 809.088C605.74 809.184 606.668 809.248 607.628 809.248C609.356 809.248 623.404 809.248 625.1 809.248C625.804 809.248 626.956 809.184 627.628 809.12V811.712C627.02 811.68 625.868 811.68 625.164 811.68C623.372 811.68 609.228 811.68 607.628 811.68C606.668 811.68 605.932 811.712 604.972 811.744V809.088ZM654.188 798.144C655.18 798.24 656.844 798.336 658.668 798.336C661.004 798.336 673.836 798.336 676.204 798.336C677.804 798.336 678.924 798.208 679.66 798.144V801.28C678.988 801.248 677.644 801.152 676.236 801.152C673.804 801.152 661.036 801.152 658.668 801.152C656.908 801.152 655.212 801.216 654.188 801.28V798.144ZM712.428 809.184C712.428 807.392 712.428 793.248 712.428 790.592C712.428 789.664 712.364 788.256 712.204 787.232H715.34C715.212 788.224 715.116 789.6 715.116 790.592C715.116 795.552 715.148 807.68 715.148 809.184C715.148 810.208 715.212 811.936 715.34 812.992H712.236C712.396 811.968 712.428 810.368 712.428 809.184ZM714.54 795.648C718.764 796.864 725.228 799.328 728.78 801.056L727.66 803.776C724.012 801.824 718.028 799.552 714.54 798.464V795.648ZM777.196 787.744C777.132 788.512 777.1 789.44 777.1 790.528C777.1 791.776 777.1 794.496 777.1 795.68C777.1 803.392 776.076 805.92 773.74 808.64C771.692 811.136 768.492 812.544 766.156 813.344L764.044 811.136C766.988 810.368 769.708 809.12 771.692 806.848C773.964 804.224 774.38 801.6 774.38 795.584C774.38 794.336 774.38 791.648 774.38 790.528C774.38 789.44 774.284 788.512 774.188 787.744H777.196ZM762.348 788C762.284 788.608 762.252 789.536 762.252 790.272C762.252 791.232 762.252 799.616 762.252 800.96C762.252 801.792 762.284 802.848 762.348 803.424H759.436C759.5 802.912 759.564 801.888 759.564 800.96C759.564 799.584 759.564 791.232 759.564 790.272C759.564 789.728 759.532 788.608 759.436 788H762.348ZM832.908 790.4C832.652 790.688 832.268 791.168 832.044 791.52C830.764 793.696 827.724 797.824 824.076 800.352L821.932 798.656C824.908 796.96 827.916 793.504 828.94 791.52C826.7 791.52 812.236 791.52 810.7 791.52C809.516 791.52 808.332 791.584 807.084 791.68V788.8C808.204 788.96 809.516 789.088 810.7 789.088C812.236 789.088 827.18 789.088 829.1 789.088C829.708 789.088 830.86 788.992 831.308 788.864L832.908 790.4ZM820.108 794.592C820.108 803.264 819.34 809.12 811.18 813.216L808.844 811.296C809.708 811.008 810.828 810.464 811.724 809.856C816.652 806.816 817.356 802.272 817.356 796.928C817.356 796.16 817.356 795.456 817.228 794.592H820.108ZM870.26 811.328C870.388 810.848 870.484 810.176 870.484 809.536C870.484 808.064 870.484 792.384 870.484 790.368C870.484 789.152 870.324 788.256 870.324 788H873.268C873.236 788.256 873.108 789.184 873.108 790.4C873.108 792.384 873.108 807.872 873.108 808.832C876.084 807.488 880.02 804.576 882.452 800.96L883.988 803.168C881.204 806.912 876.788 810.176 873.076 812.032C872.532 812.288 872.212 812.576 871.956 812.736L870.26 811.328ZM855.604 811.2C858.324 809.28 860.212 806.432 861.172 803.328C862.132 800.384 862.132 794.016 862.132 790.432C862.132 789.504 862.068 788.8 861.908 788.128H864.852C864.82 788.48 864.692 789.472 864.692 790.4C864.692 793.952 864.596 800.832 863.732 804.032C862.772 807.456 860.724 810.56 858.036 812.8L855.604 811.2Z" fill="white"/>
</svg>
